<svg width="119" height="19" viewBox="0 0 119 19" fill="none" xmlns="http://www.w3.org/2000/svg">
<g clip-path="url(#clip0_46_3)">
<path fill-rule="evenodd" clip-rule="evenodd" d="M34.4375 14.0549L28.6699 17.8342L30.4819 11.181L25.1053 6.86352L31.9928 6.53094L34.4375 0.083252L36.8822 6.53094L43.7697 6.86352L38.3931 11.181L40.2051 17.8342L34.4375 14.0549Z" fill="#FFC54F"/>
</g>
<g clip-path="url(#clip1_46_3)">
<path fill-rule="evenodd" clip-rule="evenodd" d="M59.0625 14.0549L53.2949 17.8342L55.1069 11.181L49.7303 6.86352L56.6178 6.53094L59.0625 0.083252L61.5072 6.53094L68.3947 6.86352L63.0181 11.181L64.8301 17.8342L59.0625 14.0549Z" fill="#FFC54F"/>
</g>
<g clip-path="url(#clip2_46_3)">
<path fill-rule="evenodd" clip-rule="evenodd" d="M83.6875 14.0549L77.9199 17.8342L79.7319 11.181L74.3553 6.86352L81.2428 6.53094L83.6875 0.083252L86.1322 6.53094L93.0197 6.86352L87.6431 11.181L89.4551 17.8342L83.6875 14.0549Z" fill="#FFC54F"/>
</g>
<g clip-path="url(#clip3_46_3)">
<path fill-rule="evenodd" clip-rule="evenodd" d="M9.8125 13.9768L4.04486 17.7561L5.85693 11.1029L0.480259 6.7854L7.36782 6.45282L9.8125 0.00512695L12.2572 6.45282L19.1447 6.7854L13.7681 11.1029L15.5801 17.7561L9.8125 13.9768Z" fill="#FFC54F"/>
</g>
<g clip-path="url(#clip4_46_3)">
<path fill-rule="evenodd" clip-rule="evenodd" d="M108.312 13.9768L102.545 17.7561L104.357 11.1029L98.9803 6.7854L105.868 6.45282L108.312 0.00512695L110.757 6.45282L117.645 6.7854L112.268 11.1029L114.08 17.7561L108.312 13.9768Z" fill="#FFC54F"/>
</g>
<defs>
<clipPath id="clip0_46_3">
<rect width="19.625" height="17.9896" fill="white" transform="translate(24.625 0.083252)"/>
</clipPath>
<clipPath id="clip1_46_3">
<rect width="19.625" height="17.9896" fill="white" transform="translate(49.25 0.083252)"/>
</clipPath>
<clipPath id="clip2_46_3">
<rect width="19.625" height="17.9896" fill="white" transform="translate(73.875 0.083252)"/>
</clipPath>
<clipPath id="clip3_46_3">
<rect width="19.625" height="17.9896" fill="white" transform="translate(0 0.00512695)"/>
</clipPath>
<clipPath id="clip4_46_3">
<rect width="19.625" height="17.9896" fill="white" transform="translate(98.5 0.00512695)"/>
</clipPath>
</defs>
</svg>
